<mxfile host="drawio-plugin" modified="2023-10-13T07:43:23.517Z" agent="5.0 (Windows NT 6.2; Win64; x64) AppleWebKit/537.36 (KHTML, like Gecko) Chrome/104.0.5112.102 Safari/537.36" etag="s5RxascK1g7K-b-IOxja" version="20.5.3" type="embed"><diagram name="Página-1" id="UbcpDuSRHqZnIpGwXfRh"><mxGraphModel dx="1853" dy="146" grid="1" gridSize="10" guides="1" tooltips="1" connect="1" arrows="1" fold="1" page="1" pageScale="1" pageWidth="827" pageHeight="1169" math="0" shadow="0"><root><mxCell id="0"/><mxCell id="1" parent="0"/><mxCell id="2" value="geosp:SpatialObject" style="rounded=0;whiteSpace=wrap;html=1;snapToPoint=1;points=[[0.1,0],[0.2,0],[0.3,0],[0.4,0],[0.5,0],[0.6,0],[0.7,0],[0.8,0],[0.9,0],[0,0.1],[0,0.3],[0,0.5],[0,0.7],[0,0.9],[0.1,1],[0.2,1],[0.3,1],[0.4,1],[0.5,1],[0.6,1],[0.7,1],[0.8,1],[0.9,1],[1,0.1],[1,0.3],[1,0.5],[1,0.7],[1,0.9]];" parent="1" vertex="1"><mxGeometry x="1027" y="1299.0000000000002" width="120" height="30" as="geometry"/></mxCell><mxCell id="3" style="edgeStyle=orthogonalEdgeStyle;rounded=0;orthogonalLoop=1;jettySize=auto;html=1;exitX=0.5;exitY=0;exitDx=0;exitDy=0;entryX=0.5;entryY=1;entryDx=0;entryDy=0;endArrow=block;endFill=0;" parent="1" source="4" target="2" edge="1"><mxGeometry relative="1" as="geometry"><Array as="points"><mxPoint x="869" y="1361"/><mxPoint x="1087" y="1361"/></Array></mxGeometry></mxCell><mxCell id="4" value="geosp:Feature" style="rounded=0;whiteSpace=wrap;html=1;snapToPoint=1;points=[[0.1,0],[0.2,0],[0.3,0],[0.4,0],[0.5,0],[0.6,0],[0.7,0],[0.8,0],[0.9,0],[0,0.1],[0,0.3],[0,0.5],[0,0.7],[0,0.9],[0.1,1],[0.2,1],[0.3,1],[0.4,1],[0.5,1],[0.6,1],[0.7,1],[0.8,1],[0.9,1],[1,0.1],[1,0.3],[1,0.5],[1,0.7],[1,0.9]];" parent="1" vertex="1"><mxGeometry x="809" y="1373.0000000000002" width="120" height="30" as="geometry"/></mxCell><mxCell id="5" style="edgeStyle=orthogonalEdgeStyle;rounded=0;orthogonalLoop=1;jettySize=auto;html=1;exitX=0.5;exitY=0;exitDx=0;exitDy=0;entryX=0.5;entryY=1;entryDx=0;entryDy=0;endArrow=block;endFill=0;" parent="1" source="7" target="2" edge="1"><mxGeometry relative="1" as="geometry"><Array as="points"><mxPoint x="1154" y="1361"/><mxPoint x="1087" y="1361"/></Array></mxGeometry></mxCell><mxCell id="6" value="(all) geo:location" style="edgeStyle=orthogonalEdgeStyle;rounded=0;orthogonalLoop=1;jettySize=auto;html=1;exitX=1;exitY=0.5;exitDx=0;exitDy=0;entryX=1;entryY=0.5;entryDx=0;entryDy=0;dashed=1;endArrow=classic;endFill=1;" parent="1" source="2" target="9" edge="1"><mxGeometry x="-0.5486" relative="1" as="geometry"><mxPoint x="1" as="offset"/></mxGeometry></mxCell><mxCell id="7" value="geosp:Geometry" style="rounded=0;whiteSpace=wrap;html=1;snapToPoint=1;points=[[0.1,0],[0.2,0],[0.3,0],[0.4,0],[0.5,0],[0.6,0],[0.7,0],[0.8,0],[0.9,0],[0,0.1],[0,0.3],[0,0.5],[0,0.7],[0,0.9],[0.1,1],[0.2,1],[0.3,1],[0.4,1],[0.5,1],[0.6,1],[0.7,1],[0.8,1],[0.9,1],[1,0.1],[1,0.3],[1,0.5],[1,0.7],[1,0.9]];" parent="1" vertex="1"><mxGeometry x="1089" y="1373" width="130" height="30" as="geometry"/></mxCell><mxCell id="8" style="rounded=0;orthogonalLoop=1;jettySize=auto;html=1;exitX=0.3;exitY=0;exitDx=0;exitDy=0;endArrow=block;endFill=0;entryX=0.858;entryY=0.989;entryDx=0;entryDy=0;entryPerimeter=0;" parent="1" source="9" target="7" edge="1"><mxGeometry relative="1" as="geometry"/></mxCell><mxCell id="9" value="geo:Point" style="rounded=0;whiteSpace=wrap;html=1;snapToPoint=1;points=[[0.1,0],[0.2,0],[0.3,0],[0.4,0],[0.5,0],[0.6,0],[0.7,0],[0.8,0],[0.9,0],[0,0.1],[0,0.3],[0,0.5],[0,0.7],[0,0.9],[0.1,1],[0.2,1],[0.3,1],[0.4,1],[0.5,1],[0.6,1],[0.7,1],[0.8,1],[0.9,1],[1,0.1],[1,0.3],[1,0.5],[1,0.7],[1,0.9]];" parent="1" vertex="1"><mxGeometry x="1177" y="1423" width="80" height="30" as="geometry"/></mxCell><mxCell id="10" style="edgeStyle=orthogonalEdgeStyle;rounded=0;orthogonalLoop=1;jettySize=auto;html=1;exitX=0.5;exitY=0;exitDx=0;exitDy=0;endArrow=block;endFill=0;entryX=0.5;entryY=1;entryDx=0;entryDy=0;" parent="1" source="14" target="25" edge="1"><mxGeometry relative="1" as="geometry"><mxPoint x="14" y="1669" as="sourcePoint"/><mxPoint x="533" y="1294" as="targetPoint"/></mxGeometry></mxCell><mxCell id="11" style="edgeStyle=orthogonalEdgeStyle;rounded=0;orthogonalLoop=1;jettySize=auto;html=1;exitX=0.5;exitY=0;exitDx=0;exitDy=0;endArrow=block;endFill=0;entryX=0.5;entryY=1;entryDx=0;entryDy=0;" parent="1" source="21" target="14" edge="1"><mxGeometry relative="1" as="geometry"><Array as="points"/></mxGeometry></mxCell><mxCell id="12" value="(all) saref:makesMeasurement" style="rounded=0;orthogonalLoop=1;jettySize=auto;html=1;entryX=0.45;entryY=-0.119;entryDx=0;entryDy=0;endArrow=classic;endFill=1;entryPerimeter=0;exitX=0.001;exitY=0.844;exitDx=0;exitDy=0;exitPerimeter=0;edgeStyle=orthogonalEdgeStyle;dashed=1;" parent="1" source="14" edge="1"><mxGeometry x="0.5506" y="19" relative="1" as="geometry"><mxPoint as="offset"/><Array as="points"><mxPoint x="494" y="1504"/><mxPoint x="244" y="1504"/></Array><mxPoint x="443" y="1493" as="sourcePoint"/><mxPoint x="244" y="1619.4299999999998" as="targetPoint"/></mxGeometry></mxCell><mxCell id="13" value="(all) saref:measuresProperty" style="edgeStyle=orthogonalEdgeStyle;rounded=0;orthogonalLoop=1;jettySize=auto;html=1;exitX=0;exitY=0.5;exitDx=0;exitDy=0;endArrow=classic;endFill=1;entryX=0.6;entryY=1;entryDx=0;entryDy=0;dashed=1;" parent="1" source="14" target="15" edge="1"><mxGeometry relative="1" as="geometry"><Array as="points"><mxPoint x="187" y="1479"/></Array></mxGeometry></mxCell><mxCell id="14" value="saref:Device" style="rounded=0;whiteSpace=wrap;html=1;snapToPoint=1;points=[[0.1,0],[0.2,0],[0.3,0],[0.4,0],[0.5,0],[0.6,0],[0.7,0],[0.8,0],[0.9,0],[0,0.1],[0,0.3],[0,0.5],[0,0.7],[0,0.9],[0.1,1],[0.2,1],[0.3,1],[0.4,1],[0.5,1],[0.6,1],[0.7,1],[0.8,1],[0.9,1],[1,0.1],[1,0.3],[1,0.5],[1,0.7],[1,0.9]];" parent="1" vertex="1"><mxGeometry x="494" y="1464" width="80" height="30" as="geometry"/></mxCell><mxCell id="15" value="saref:Property" style="rounded=0;whiteSpace=wrap;html=1;snapToPoint=1;points=[[0.1,0],[0.2,0],[0.3,0],[0.4,0],[0.5,0],[0.6,0],[0.7,0],[0.8,0],[0.9,0],[0,0.1],[0,0.3],[0,0.5],[0,0.7],[0,0.9],[0.1,1],[0.2,1],[0.3,1],[0.4,1],[0.5,1],[0.6,1],[0.7,1],[0.8,1],[0.9,1],[1,0.1],[1,0.3],[1,0.5],[1,0.7],[1,0.9]];" parent="1" vertex="1"><mxGeometry x="133" y="1374" width="90" height="30" as="geometry"/></mxCell><mxCell id="16" value="(all) saref:isMeasuredIn (1..1)" style="edgeStyle=orthogonalEdgeStyle;rounded=0;orthogonalLoop=1;jettySize=auto;html=1;exitX=0.5;exitY=1;exitDx=0;exitDy=0;entryX=0;entryY=0.5;entryDx=0;entryDy=0;endArrow=classic;endFill=1;dashed=1;" parent="1" source="20" target="19" edge="1"><mxGeometry x="-0.5142" y="20" relative="1" as="geometry"><mxPoint x="367.5" y="1709" as="sourcePoint"/><mxPoint as="offset"/></mxGeometry></mxCell><mxCell id="17" value="(all) saref:relatesToProperty" style="edgeStyle=orthogonalEdgeStyle;rounded=0;orthogonalLoop=1;jettySize=auto;html=1;exitX=0;exitY=0.5;exitDx=0;exitDy=0;entryX=0.4;entryY=1;entryDx=0;entryDy=0;endArrow=classic;endFill=1;" parent="1" source="18" target="15" edge="1"><mxGeometry x="0.1202" y="6" relative="1" as="geometry"><mxPoint as="offset"/><Array as="points"><mxPoint x="169" y="1639"/></Array></mxGeometry></mxCell><mxCell id="18" value="saref:Measurement" style="rounded=0;whiteSpace=wrap;html=1;snapToPoint=1;points=[[0.1,0],[0.2,0],[0.3,0],[0.4,0],[0.5,0],[0.6,0],[0.7,0],[0.8,0],[0.9,0],[0,0.1],[0,0.3],[0,0.5],[0,0.7],[0,0.9],[0.1,1],[0.2,1],[0.3,1],[0.4,1],[0.5,1],[0.6,1],[0.7,1],[0.8,1],[0.9,1],[1,0.1],[1,0.3],[1,0.5],[1,0.7],[1,0.9]];" parent="1" vertex="1"><mxGeometry x="154" y="1624" width="219" height="30" as="geometry"/></mxCell><mxCell id="19" value="saref:UnitOfMeasure" style="rounded=0;whiteSpace=wrap;html=1;snapToPoint=1;points=[[0.1,0],[0.2,0],[0.3,0],[0.4,0],[0.5,0],[0.6,0],[0.7,0],[0.8,0],[0.9,0],[0,0.1],[0,0.3],[0,0.5],[0,0.7],[0,0.9],[0.1,1],[0.2,1],[0.3,1],[0.4,1],[0.5,1],[0.6,1],[0.7,1],[0.8,1],[0.9,1],[1,0.1],[1,0.3],[1,0.5],[1,0.7],[1,0.9]];" parent="1" vertex="1"><mxGeometry x="323" y="1753" width="135" height="30" as="geometry"/></mxCell><mxCell id="20" value="saref:hasTimestamp: xsd:dateTime&lt;br&gt;saref:hasValue (1..1)" style="rounded=0;whiteSpace=wrap;html=1;snapToPoint=1;points=[[0.1,0],[0.2,0],[0.3,0],[0.4,0],[0.5,0],[0.6,0],[0.7,0],[0.8,0],[0.9,0],[0,0.1],[0,0.3],[0,0.5],[0,0.7],[0,0.9],[0.1,1],[0.2,1],[0.3,1],[0.4,1],[0.5,1],[0.6,1],[0.7,1],[0.8,1],[0.9,1],[1,0.1],[1,0.3],[1,0.5],[1,0.7],[1,0.9]];dashed=1;fillColor=#FFFFFF;" parent="1" vertex="1"><mxGeometry x="154" y="1654" width="219" height="50" as="geometry"/></mxCell><mxCell id="21" value="saref:Sensor" style="rounded=0;whiteSpace=wrap;html=1;snapToPoint=1;points=[[0.1,0],[0.2,0],[0.3,0],[0.4,0],[0.5,0],[0.6,0],[0.7,0],[0.8,0],[0.9,0],[0,0.1],[0,0.3],[0,0.5],[0,0.7],[0,0.9],[0.1,1],[0.2,1],[0.3,1],[0.4,1],[0.5,1],[0.6,1],[0.7,1],[0.8,1],[0.9,1],[1,0.1],[1,0.3],[1,0.5],[1,0.7],[1,0.9]];" parent="1" vertex="1"><mxGeometry x="494" y="1653" width="79" height="30" as="geometry"/></mxCell><mxCell id="22" value="geosp:sfContains&lt;br&gt;geosp:sfWithin" style="edgeStyle=orthogonalEdgeStyle;rounded=0;orthogonalLoop=1;jettySize=auto;html=1;exitX=0.2;exitY=0;exitDx=0;exitDy=0;entryX=0.2;entryY=1;entryDx=0;entryDy=0;endArrow=classic;endFill=1;endSize=8;labelBackgroundColor=default;" parent="1" source="2" target="2" edge="1"><mxGeometry x="-0.0336" relative="1" as="geometry"><Array as="points"><mxPoint x="1049" y="1281"/><mxPoint x="983" y="1281"/><mxPoint x="983" y="1351"/><mxPoint x="1049" y="1351"/></Array><mxPoint as="offset"/></mxGeometry></mxCell><mxCell id="23" value="&lt;div&gt;&lt;b&gt;bigg&lt;/b&gt;: http://bigg-project.eu/ld/ontology#&lt;/div&gt;&lt;div&gt;&lt;span style=&quot;font-size: 12px;&quot;&gt;&lt;b&gt;foaf:&amp;nbsp;&lt;/b&gt;http://xmlns.com/foaf/0.1/&lt;/span&gt;&lt;br&gt;&lt;/div&gt;&lt;div&gt;&lt;span style=&quot;font-size: 12px;&quot;&gt;&lt;b&gt;schema:&amp;nbsp;&amp;nbsp;&lt;/b&gt;https://schema.org/&lt;/span&gt;&lt;/div&gt;&lt;b&gt;geo&lt;/b&gt;&lt;b&gt;:&lt;/b&gt;&lt;span&gt;&amp;nbsp;&lt;/span&gt;http://www.w3.org/2003/01/geo/wgs84_pos#&lt;br&gt;&lt;b&gt;geosp:&amp;nbsp;&lt;/b&gt;&lt;span style=&quot;font-size: 12px;&quot;&gt;http://www.opengis.net/ont/geosparql#&lt;br&gt;&lt;/span&gt;&lt;b&gt;gn:&amp;nbsp;&lt;/b&gt;&lt;span style=&quot;font-size: 12px;&quot;&gt;http://www.geonames.org/ontology#&lt;/span&gt;&lt;br&gt;&lt;b&gt;saref:&lt;/b&gt;&amp;nbsp;https://saref.etsi.org/core/&lt;br&gt;&lt;b&gt;s4agri: &lt;/b&gt;https://saref.etsi.org/saref4agri/&lt;br&gt;&lt;b&gt;s4syst:&amp;nbsp;&lt;/b&gt;&lt;span style=&quot;font-size: 12px;&quot;&gt;https://saref.etsi.org/saref4syst/&lt;br&gt;&lt;/span&gt;&lt;b&gt;s4city:&amp;nbsp;&lt;/b&gt;&lt;span style=&quot;font-size: 12px;&quot;&gt;https://saref.etsi.org/saref4city/&lt;br&gt;&lt;/span&gt;&lt;b&gt;s4bldg:&amp;nbsp;&lt;/b&gt;https://saref.etsi.org/saref4bldg/&lt;br&gt;&lt;b style=&quot;font-size: 12px;&quot;&gt;ssn:&amp;nbsp;&lt;/b&gt;http://www.w3.org/ns/ssn/&lt;span style=&quot;border-color: var(--border-color);&quot;&gt;&lt;br&gt;&lt;b style=&quot;border-color: var(--border-color);&quot;&gt;time:&amp;nbsp;&lt;/b&gt;http://www.w3.org/2006/time#&lt;br style=&quot;border-color: var(--border-color);&quot;&gt;&lt;/span&gt;" style="shape=note;whiteSpace=wrap;html=1;backgroundOutline=1;darkOpacity=0.05;fillColor=#FFFFFF;" parent="1" vertex="1"><mxGeometry x="-454" y="1204" width="338" height="190" as="geometry"/></mxCell><mxCell id="24" value="&lt;div&gt;&lt;b&gt;dc:creator:&lt;/b&gt;&amp;nbsp;Edgar Martínez-Sarmiento&lt;/div&gt;&lt;div&gt;&lt;b&gt;dc:creator:&lt;/b&gt; ...&lt;/div&gt;&lt;div&gt;&lt;b&gt;owl:versionInfo:&lt;/b&gt; 2.1&lt;/div&gt;&lt;div&gt;&lt;b&gt;dc:title:&lt;/b&gt; BIGG Ontology&lt;/div&gt;" style="shape=document;whiteSpace=wrap;html=1;boundedLbl=1;labelBackgroundColor=#ffffff;strokeColor=#000000;fontSize=12;fontColor=#000000;size=0.23333333333333334;fillColor=#FFFFFF;" parent="1" vertex="1"><mxGeometry x="-456" y="1414" width="310" height="110" as="geometry"/></mxCell><mxCell id="25" value="ssn:System" style="rounded=0;whiteSpace=wrap;html=1;snapToPoint=1;points=[[0.1,0],[0.2,0],[0.3,0],[0.4,0],[0.5,0],[0.6,0],[0.7,0],[0.8,0],[0.9,0],[0,0.1],[0,0.3],[0,0.5],[0,0.7],[0,0.9],[0.1,1],[0.2,1],[0.3,1],[0.4,1],[0.5,1],[0.6,1],[0.7,1],[0.8,1],[0.9,1],[1,0.1],[1,0.3],[1,0.5],[1,0.7],[1,0.9]];" parent="1" vertex="1"><mxGeometry x="489" y="1224" width="90" height="30" as="geometry"/></mxCell><mxCell id="26" value="ssn:Deployment" style="rounded=0;whiteSpace=wrap;html=1;snapToPoint=1;points=[[0.1,0],[0.2,0],[0.3,0],[0.4,0],[0.5,0],[0.6,0],[0.7,0],[0.8,0],[0.9,0],[0,0.1],[0,0.3],[0,0.5],[0,0.7],[0,0.9],[0.1,1],[0.2,1],[0.3,1],[0.4,1],[0.5,1],[0.6,1],[0.7,1],[0.8,1],[0.9,1],[1,0.1],[1,0.3],[1,0.5],[1,0.7],[1,0.9]];" parent="1" vertex="1"><mxGeometry x="700" y="1224" width="90" height="30" as="geometry"/></mxCell><mxCell id="27" value="(all) ssn:hasDeployment" style="rounded=0;orthogonalLoop=1;jettySize=auto;html=1;endArrow=classic;endFill=1;dashed=1;exitX=0.8;exitY=0;exitDx=0;exitDy=0;entryX=0.4;entryY=0;entryDx=0;entryDy=0;edgeStyle=orthogonalEdgeStyle;" parent="1" source="25" target="26" edge="1"><mxGeometry relative="1" as="geometry"><mxPoint x="531" y="1194" as="sourcePoint"/><mxPoint x="713" y="1224" as="targetPoint"/></mxGeometry></mxCell><mxCell id="28" value="" style="endArrow=block;html=1;fontColor=#000099;exitX=0;exitY=0.7;exitDx=0;exitDy=0;endFill=0;entryX=0.5;entryY=1;entryDx=0;entryDy=0;endSize=8;arcSize=0;rounded=0;edgeStyle=orthogonalEdgeStyle;" parent="1" source="29" target="26" edge="1"><mxGeometry width="50" height="50" relative="1" as="geometry"><mxPoint x="470" y="1304" as="sourcePoint"/><mxPoint x="745" y="1294" as="targetPoint"/></mxGeometry></mxCell><mxCell id="29" value="s4agri:Deployment" style="rounded=0;whiteSpace=wrap;html=1;snapToPoint=1;points=[[0.1,0],[0.2,0],[0.3,0],[0.4,0],[0.5,0],[0.6,0],[0.7,0],[0.8,0],[0.9,0],[0,0.1],[0,0.3],[0,0.5],[0,0.7],[0,0.9],[0.1,1],[0.2,1],[0.3,1],[0.4,1],[0.5,1],[0.6,1],[0.7,1],[0.8,1],[0.9,1],[1,0.1],[1,0.3],[1,0.5],[1,0.7],[1,0.9]];" parent="1" vertex="1"><mxGeometry x="811.5" y="1254" width="115" height="30" as="geometry"/></mxCell><mxCell id="30" value="" style="endArrow=classic;html=1;exitX=1;exitY=0.5;exitDx=0;exitDy=0;entryX=0.5;entryY=0;entryDx=0;entryDy=0;endSize=8;arcSize=0;rounded=0;edgeStyle=orthogonalEdgeStyle;dashed=1;" parent="1" source="29" target="2" edge="1"><mxGeometry width="50" height="50" relative="1" as="geometry"><mxPoint x="861.0000000000005" y="1268" as="sourcePoint"/><mxPoint x="1213" y="1277" as="targetPoint"/></mxGeometry></mxCell><mxCell id="31" value="&lt;div&gt;(some) s4agri:isDeployedAtSpace&lt;/div&gt;" style="edgeLabel;html=1;align=center;verticalAlign=middle;resizable=0;points=[];" parent="30" connectable="0" vertex="1"><mxGeometry x="-0.1912" y="-1" relative="1" as="geometry"><mxPoint x="23" y="-1" as="offset"/></mxGeometry></mxCell><mxCell id="32" value="" style="endArrow=classic;html=1;exitX=1;exitY=0.5;exitDx=0;exitDy=0;entryX=0;entryY=0.5;entryDx=0;entryDy=0;endSize=8;arcSize=0;rounded=0;" parent="1" source="4" target="7" edge="1"><mxGeometry width="50" height="50" relative="1" as="geometry"><mxPoint x="814" y="1661.33" as="sourcePoint"/><mxPoint x="1026.0000000000002" y="1661.33" as="targetPoint"/></mxGeometry></mxCell><mxCell id="33" value="&lt;div&gt;(all) geosp:hasGeometry&lt;/div&gt;" style="edgeLabel;html=1;align=center;verticalAlign=middle;resizable=0;points=[];" parent="32" connectable="0" vertex="1"><mxGeometry x="-0.1912" y="-1" relative="1" as="geometry"><mxPoint x="15" y="-1" as="offset"/></mxGeometry></mxCell><mxCell id="34" value="" style="endArrow=block;html=1;fontColor=#000099;exitX=0;exitY=0.5;exitDx=0;exitDy=0;endFill=0;entryX=0.1;entryY=1;entryDx=0;entryDy=0;endSize=8;arcSize=0;rounded=0;edgeStyle=orthogonalEdgeStyle;" parent="1" source="35" target="119" edge="1"><mxGeometry width="50" height="50" relative="1" as="geometry"><mxPoint x="594" y="1443" as="sourcePoint"/><mxPoint x="869" y="1433" as="targetPoint"/></mxGeometry></mxCell><mxCell id="35" value="bigg:Patrimony" style="rounded=0;whiteSpace=wrap;html=1;snapToPoint=1;points=[[0.1,0],[0.2,0],[0.3,0],[0.4,0],[0.5,0],[0.6,0],[0.7,0],[0.8,0],[0.9,0],[0,0.1],[0,0.3],[0,0.5],[0,0.7],[0,0.9],[0.1,1],[0.2,1],[0.3,1],[0.4,1],[0.5,1],[0.6,1],[0.7,1],[0.8,1],[0.9,1],[1,0.1],[1,0.3],[1,0.5],[1,0.7],[1,0.9]];fillColor=#dae8fc;strokeColor=#6c8ebf;" parent="1" vertex="1"><mxGeometry x="937" y="1524" width="100" height="30" as="geometry"/></mxCell><mxCell id="36" value="" style="endArrow=block;html=1;fontColor=#000099;exitX=0;exitY=0.5;exitDx=0;exitDy=0;endFill=0;entryX=0.1;entryY=1;entryDx=0;entryDy=0;endSize=8;arcSize=0;rounded=0;edgeStyle=orthogonalEdgeStyle;" parent="1" source="37" target="119" edge="1"><mxGeometry width="50" height="50" relative="1" as="geometry"><mxPoint x="594" y="1543" as="sourcePoint"/><mxPoint x="869" y="1503.0000000000002" as="targetPoint"/></mxGeometry></mxCell><mxCell id="37" value="bigg:CadastralParcel" style="rounded=0;whiteSpace=wrap;html=1;snapToPoint=1;points=[[0.1,0],[0.2,0],[0.3,0],[0.4,0],[0.5,0],[0.6,0],[0.7,0],[0.8,0],[0.9,0],[0,0.1],[0,0.3],[0,0.5],[0,0.7],[0,0.9],[0.1,1],[0.2,1],[0.3,1],[0.4,1],[0.5,1],[0.6,1],[0.7,1],[0.8,1],[0.9,1],[1,0.1],[1,0.3],[1,0.5],[1,0.7],[1,0.9]];fillColor=#dae8fc;strokeColor=#6c8ebf;" parent="1" vertex="1"><mxGeometry x="937" y="1572" width="124" height="30" as="geometry"/></mxCell><mxCell id="38" value="" style="endArrow=block;html=1;fontColor=#000099;exitX=0;exitY=0.5;exitDx=0;exitDy=0;endFill=0;endSize=8;arcSize=0;rounded=0;edgeStyle=orthogonalEdgeStyle;entryX=0.1;entryY=1;entryDx=0;entryDy=0;" parent="1" source="39" target="119" edge="1"><mxGeometry width="50" height="50" relative="1" as="geometry"><mxPoint x="594" y="1663" as="sourcePoint"/><mxPoint x="869" y="1623" as="targetPoint"/></mxGeometry></mxCell><mxCell id="39" value="s4bldg:Building" style="rounded=0;whiteSpace=wrap;html=1;snapToPoint=1;points=[[0.1,0],[0.2,0],[0.3,0],[0.4,0],[0.5,0],[0.6,0],[0.7,0],[0.8,0],[0.9,0],[0,0.1],[0,0.3],[0,0.5],[0,0.7],[0,0.9],[0.1,1],[0.2,1],[0.3,1],[0.4,1],[0.5,1],[0.6,1],[0.7,1],[0.8,1],[0.9,1],[1,0.1],[1,0.3],[1,0.5],[1,0.7],[1,0.9]];" parent="1" vertex="1"><mxGeometry x="937" y="1622" width="126" height="30" as="geometry"/></mxCell><mxCell id="40" value="" style="endArrow=block;html=1;fontColor=#000099;exitX=1;exitY=0.5;exitDx=0;exitDy=0;endFill=0;entryX=0.8;entryY=1;entryDx=0;entryDy=0;endSize=8;arcSize=0;rounded=0;edgeStyle=orthogonalEdgeStyle;" parent="1" source="42" target="41" edge="1"><mxGeometry width="50" height="50" relative="1" as="geometry"><mxPoint x="936.21" y="1671.5" as="sourcePoint"/><mxPoint x="1094.2099999999893" y="1671.5" as="targetPoint"/></mxGeometry></mxCell><mxCell id="41" value="foaf:Agent" style="rounded=0;whiteSpace=wrap;html=1;snapToPoint=1;points=[[0.1,0],[0.2,0],[0.3,0],[0.4,0],[0.5,0],[0.6,0],[0.7,0],[0.8,0],[0.9,0],[0,0.1],[0,0.3],[0,0.5],[0,0.7],[0,0.9],[0.1,1],[0.2,1],[0.3,1],[0.4,1],[0.5,1],[0.6,1],[0.7,1],[0.8,1],[0.9,1],[1,0.1],[1,0.3],[1,0.5],[1,0.7],[1,0.9]];" parent="1" vertex="1"><mxGeometry x="1161.21" y="1631.5" width="100" height="30" as="geometry"/></mxCell><mxCell id="42" value="foaf:Person" style="rounded=0;whiteSpace=wrap;html=1;snapToPoint=1;points=[[0.1,0],[0.2,0],[0.3,0],[0.4,0],[0.5,0],[0.6,0],[0.7,0],[0.8,0],[0.9,0],[0,0.1],[0,0.3],[0,0.5],[0,0.7],[0,0.9],[0.1,1],[0.2,1],[0.3,1],[0.4,1],[0.5,1],[0.6,1],[0.7,1],[0.8,1],[0.9,1],[1,0.1],[1,0.3],[1,0.5],[1,0.7],[1,0.9]];" parent="1" vertex="1"><mxGeometry x="1117.21" y="1677.5" width="100" height="30" as="geometry"/></mxCell><mxCell id="43" value="" style="endArrow=block;html=1;fontColor=#000099;exitX=1;exitY=0.3;exitDx=0;exitDy=0;endFill=0;entryX=0.8;entryY=1;entryDx=0;entryDy=0;endSize=8;arcSize=0;rounded=0;edgeStyle=orthogonalEdgeStyle;" parent="1" source="44" target="41" edge="1"><mxGeometry width="50" height="50" relative="1" as="geometry"><mxPoint x="936.21" y="1751.5" as="sourcePoint"/><mxPoint x="1211.21" y="1741.5" as="targetPoint"/></mxGeometry></mxCell><mxCell id="44" value="schema:Organization" style="rounded=0;whiteSpace=wrap;html=1;snapToPoint=1;points=[[0.1,0],[0.2,0],[0.3,0],[0.4,0],[0.5,0],[0.6,0],[0.7,0],[0.8,0],[0.9,0],[0,0.1],[0,0.3],[0,0.5],[0,0.7],[0,0.9],[0.1,1],[0.2,1],[0.3,1],[0.4,1],[0.5,1],[0.6,1],[0.7,1],[0.8,1],[0.9,1],[1,0.1],[1,0.3],[1,0.5],[1,0.7],[1,0.9]];" parent="1" vertex="1"><mxGeometry x="1111.21" y="1735.5" width="120" height="30" as="geometry"/></mxCell><mxCell id="45" value="" style="endArrow=classic;html=1;exitX=1;exitY=0.7;exitDx=0;exitDy=0;entryX=1;entryY=0.5;entryDx=0;entryDy=0;endSize=8;arcSize=0;rounded=0;edgeStyle=orthogonalEdgeStyle;dashed=1;" parent="1" source="44" target="41" edge="1"><mxGeometry width="50" height="50" relative="1" as="geometry"><mxPoint x="1361.21" y="1726.5" as="sourcePoint"/><mxPoint x="1295.21" y="1836.5" as="targetPoint"/><Array as="points"><mxPoint x="1285.21" y="1756.5"/><mxPoint x="1285.21" y="1646.5"/></Array></mxGeometry></mxCell><mxCell id="46" value="&lt;div&gt;(some) foaf:member&lt;/div&gt;" style="text;html=1;align=center;verticalAlign=middle;resizable=0;points=[];labelBackgroundColor=#ffffff;" parent="45" connectable="0" vertex="1"><mxGeometry x="-0.1269" relative="1" as="geometry"><mxPoint x="18" y="-14" as="offset"/></mxGeometry></mxCell><mxCell id="47" value="" style="endArrow=classic;html=1;exitX=0;exitY=0.5;exitDx=0;exitDy=0;entryX=1;entryY=0.5;entryDx=0;entryDy=0;endSize=8;dashed=1;arcSize=0;rounded=0;edgeStyle=orthogonalEdgeStyle;" parent="1" source="41" target="35" edge="1"><mxGeometry width="50" height="50" relative="1" as="geometry"><mxPoint x="1215" y="1559" as="sourcePoint"/><mxPoint x="1389" y="1559" as="targetPoint"/></mxGeometry></mxCell><mxCell id="48" value="&lt;div&gt;(some) bigg:manages&lt;/div&gt;" style="edgeLabel;html=1;align=center;verticalAlign=middle;resizable=0;points=[];labelBorderColor=none;fontStyle=0" parent="47" connectable="0" vertex="1"><mxGeometry x="-0.1912" y="-1" relative="1" as="geometry"><mxPoint x="23" y="-13" as="offset"/></mxGeometry></mxCell><mxCell id="49" value="" style="endArrow=block;html=1;fontColor=#000099;exitX=0;exitY=0.5;exitDx=0;exitDy=0;endFill=0;entryX=0.5;entryY=1;entryDx=0;entryDy=0;endSize=8;arcSize=0;rounded=0;edgeStyle=orthogonalEdgeStyle;" parent="1" source="51" target="50" edge="1"><mxGeometry width="50" height="50" relative="1" as="geometry"><mxPoint x="1043" y="1229" as="sourcePoint"/><mxPoint x="1200.9999999999893" y="1229" as="targetPoint"/></mxGeometry></mxCell><mxCell id="50" value="time:TemporalEntity" style="rounded=0;whiteSpace=wrap;html=1;snapToPoint=1;points=[[0.1,0],[0.2,0],[0.3,0],[0.4,0],[0.5,0],[0.6,0],[0.7,0],[0.8,0],[0.9,0],[0,0.1],[0,0.3],[0,0.5],[0,0.7],[0,0.9],[0.1,1],[0.2,1],[0.3,1],[0.4,1],[0.5,1],[0.6,1],[0.7,1],[0.8,1],[0.9,1],[1,0.1],[1,0.3],[1,0.5],[1,0.7],[1,0.9]];" parent="1" vertex="1"><mxGeometry x="1088" y="1169" width="120" height="30" as="geometry"/></mxCell><mxCell id="51" value="time:Instant" style="rounded=0;whiteSpace=wrap;html=1;snapToPoint=1;points=[[0.1,0],[0.2,0],[0.3,0],[0.4,0],[0.5,0],[0.6,0],[0.7,0],[0.8,0],[0.9,0],[0,0.1],[0,0.3],[0,0.5],[0,0.7],[0,0.9],[0.1,1],[0.2,1],[0.3,1],[0.4,1],[0.5,1],[0.6,1],[0.7,1],[0.8,1],[0.9,1],[1,0.1],[1,0.3],[1,0.5],[1,0.7],[1,0.9]];" parent="1" vertex="1"><mxGeometry x="1188" y="1211" width="100" height="30" as="geometry"/></mxCell><mxCell id="52" value="" style="endArrow=block;html=1;fontColor=#000099;exitX=0;exitY=0.5;exitDx=0;exitDy=0;endFill=0;entryX=0.5;entryY=1;entryDx=0;entryDy=0;endSize=8;arcSize=0;rounded=0;edgeStyle=orthogonalEdgeStyle;" parent="1" source="53" target="50" edge="1"><mxGeometry width="50" height="50" relative="1" as="geometry"><mxPoint x="1043" y="1309" as="sourcePoint"/><mxPoint x="1318" y="1299" as="targetPoint"/></mxGeometry></mxCell><mxCell id="53" value="time:Interval" style="rounded=0;whiteSpace=wrap;html=1;snapToPoint=1;points=[[0.1,0],[0.2,0],[0.3,0],[0.4,0],[0.5,0],[0.6,0],[0.7,0],[0.8,0],[0.9,0],[0,0.1],[0,0.3],[0,0.5],[0,0.7],[0,0.9],[0.1,1],[0.2,1],[0.3,1],[0.4,1],[0.5,1],[0.6,1],[0.7,1],[0.8,1],[0.9,1],[1,0.1],[1,0.3],[1,0.5],[1,0.7],[1,0.9]];" parent="1" vertex="1"><mxGeometry x="1188" y="1250" width="100" height="30" as="geometry"/></mxCell><mxCell id="54" value="(all) ssn:hasSubSystem" style="rounded=0;orthogonalLoop=1;jettySize=auto;html=1;endArrow=classic;endFill=1;exitX=0.5;exitY=0;exitDx=0;exitDy=0;entryX=0.2;entryY=0;entryDx=0;entryDy=0;edgeStyle=orthogonalEdgeStyle;" parent="1" source="25" target="25" edge="1"><mxGeometry x="-0.3707" y="-39" relative="1" as="geometry"><Array as="points"><mxPoint x="534" y="1174"/><mxPoint x="507" y="1174"/></Array><mxPoint x="353" y="1194" as="sourcePoint"/><mxPoint x="523" y="1194" as="targetPoint"/><mxPoint as="offset"/></mxGeometry></mxCell><mxCell id="55" value="" style="endArrow=open;html=1;fontColor=#000099;exitX=0.5;exitY=0;exitDx=0;exitDy=0;endFill=0;dashed=1;entryX=0.5;entryY=1;entryDx=0;entryDy=0;endSize=8;startArrow=open;startFill=0;startSize=8;arcSize=0;rounded=0;" parent="1" edge="1"><mxGeometry width="50" height="50" relative="1" as="geometry"><mxPoint x="633" y="1276.9999999999995" as="sourcePoint"/><mxPoint x="633" y="1206.9999999999995" as="targetPoint"/><Array as="points"><mxPoint x="633" y="1274"/></Array></mxGeometry></mxCell><mxCell id="56" value="&amp;lt;&amp;lt;owl:inverseOf&amp;gt;&amp;gt;" style="text;html=1;align=center;verticalAlign=middle;resizable=0;points=[];fontColor=#000000;labelBackgroundColor=#ffffff;" parent="55" connectable="0" vertex="1"><mxGeometry x="-0.3277" relative="1" as="geometry"><mxPoint x="7" y="-21" as="offset"/></mxGeometry></mxCell><mxCell id="57" value="(all)(some) ssn:deployedSystem" style="rounded=0;orthogonalLoop=1;jettySize=auto;html=1;endArrow=classic;endFill=1;dashed=1;exitX=0.4;exitY=1;exitDx=0;exitDy=0;entryX=0.8;entryY=1;entryDx=0;entryDy=0;edgeStyle=orthogonalEdgeStyle;" parent="1" source="26" target="25" edge="1"><mxGeometry relative="1" as="geometry"><mxPoint x="630" y="1368.58" as="sourcePoint"/><mxPoint x="814" y="1368.58" as="targetPoint"/></mxGeometry></mxCell><mxCell id="58" value="" style="endArrow=open;html=1;fontColor=#000099;endFill=0;dashed=1;endSize=8;startArrow=open;startFill=0;startSize=8;arcSize=0;rounded=0;" parent="1" edge="1"><mxGeometry width="50" height="50" relative="1" as="geometry"><mxPoint x="388" y="1554" as="sourcePoint"/><mxPoint x="388" y="1504" as="targetPoint"/></mxGeometry></mxCell><mxCell id="59" value="&amp;lt;&amp;lt;owl:inverseOf&amp;gt;&amp;gt;" style="text;html=1;align=center;verticalAlign=middle;resizable=0;points=[];fontColor=#000000;labelBackgroundColor=#ffffff;" parent="58" connectable="0" vertex="1"><mxGeometry x="-0.3277" relative="1" as="geometry"><mxPoint x="7" y="-11" as="offset"/></mxGeometry></mxCell><mxCell id="60" value="saref:measurementMadeBy" style="edgeStyle=orthogonalEdgeStyle;rounded=0;orthogonalLoop=1;jettySize=auto;html=1;exitX=0.654;exitY=-0.088;exitDx=0;exitDy=0;entryX=0.2;entryY=1;entryDx=0;entryDy=0;endArrow=classic;endFill=1;exitPerimeter=0;dashed=1;" parent="1" source="18" target="14" edge="1"><mxGeometry x="-0.3446" y="-20" relative="1" as="geometry"><mxPoint as="offset"/><Array as="points"><mxPoint x="297" y="1554"/><mxPoint x="510" y="1554"/></Array><mxPoint x="700" y="1545" as="sourcePoint"/><mxPoint x="450" y="1680.4299999999998" as="targetPoint"/></mxGeometry></mxCell><mxCell id="61" value="saref:isControlledByDevice" style="rounded=0;orthogonalLoop=1;jettySize=auto;html=1;endArrow=classic;endFill=1;exitX=1;exitY=0.5;exitDx=0;exitDy=0;entryX=0.3;entryY=0;entryDx=0;entryDy=0;edgeStyle=orthogonalEdgeStyle;" parent="1" source="15" target="14" edge="1"><mxGeometry relative="1" as="geometry"><mxPoint x="103" y="1428.58" as="sourcePoint"/><mxPoint x="503" y="1464" as="targetPoint"/><Array as="points"><mxPoint x="223" y="1394"/><mxPoint x="518" y="1394"/></Array></mxGeometry></mxCell><mxCell id="62" value="(all) saref:controlsProperty" style="rounded=0;orthogonalLoop=1;jettySize=auto;html=1;endArrow=classic;endFill=1;exitX=0.1;exitY=0;exitDx=0;exitDy=0;entryX=0.951;entryY=0.989;entryDx=0;entryDy=0;entryPerimeter=0;edgeStyle=orthogonalEdgeStyle;" parent="1" source="14" target="15" edge="1"><mxGeometry relative="1" as="geometry"><mxPoint x="313.0000000000002" y="1444" as="sourcePoint"/><mxPoint x="738" y="1505" as="targetPoint"/><Array as="points"><mxPoint x="502" y="1424"/><mxPoint x="219" y="1424"/></Array></mxGeometry></mxCell><mxCell id="63" value="(all) saref:isMeasuredByDevice" style="rounded=0;orthogonalLoop=1;jettySize=auto;html=1;endArrow=none;endFill=0;entryX=0.8;entryY=1;entryDx=0;entryDy=0;exitX=0;exitY=0.1;exitDx=0;exitDy=0;edgeStyle=orthogonalEdgeStyle;dashed=1;startArrow=classic;startFill=1;" parent="1" source="14" target="15" edge="1"><mxGeometry relative="1" as="geometry"><mxPoint x="483" y="1464" as="sourcePoint"/><mxPoint x="528" y="1455" as="targetPoint"/><Array as="points"><mxPoint x="494" y="1444"/><mxPoint x="205" y="1444"/></Array></mxGeometry></mxCell><mxCell id="64" value="saref:FeatureOfInterest" style="rounded=0;whiteSpace=wrap;html=1;snapToPoint=1;points=[[0.1,0],[0.2,0],[0.3,0],[0.4,0],[0.5,0],[0.6,0],[0.7,0],[0.8,0],[0.9,0],[0,0.1],[0,0.3],[0,0.5],[0,0.7],[0,0.9],[0.1,1],[0.2,1],[0.3,1],[0.4,1],[0.5,1],[0.6,1],[0.7,1],[0.8,1],[0.9,1],[1,0.1],[1,0.3],[1,0.5],[1,0.7],[1,0.9]];" parent="1" vertex="1"><mxGeometry x="-77" y="1534" width="140" height="30" as="geometry"/></mxCell><mxCell id="65" value="" style="endArrow=classic;html=1;exitX=0.7;exitY=1;exitDx=0;exitDy=0;entryX=0.1;entryY=1;entryDx=0;entryDy=0;endSize=8;arcSize=0;rounded=0;edgeStyle=orthogonalEdgeStyle;" parent="1" source="64" target="20" edge="1"><mxGeometry width="50" height="50" relative="1" as="geometry"><mxPoint x="-137" y="1931.33" as="sourcePoint"/><mxPoint x="157" y="1828" as="targetPoint"/><Array as="points"><mxPoint x="-17" y="1564"/><mxPoint x="-17" y="1734"/><mxPoint x="176" y="1734"/></Array></mxGeometry></mxCell><mxCell id="66" value="(all) saref:hasMeasurement" style="edgeLabel;html=1;align=center;verticalAlign=middle;resizable=0;points=[];" parent="65" connectable="0" vertex="1"><mxGeometry x="-0.1912" y="-1" relative="1" as="geometry"><mxPoint x="41" y="-37" as="offset"/></mxGeometry></mxCell><mxCell id="67" value="" style="endArrow=classic;html=1;exitX=0;exitY=0.5;exitDx=0;exitDy=0;entryX=0.9;entryY=1;entryDx=0;entryDy=0;endSize=8;arcSize=0;rounded=0;edgeStyle=orthogonalEdgeStyle;" parent="1" source="18" target="64" edge="1"><mxGeometry width="50" height="50" relative="1" as="geometry"><mxPoint x="-27" y="1574" as="sourcePoint"/><mxPoint x="184" y="1714" as="targetPoint"/></mxGeometry></mxCell><mxCell id="68" value="(all) saref:isMeasurementOf" style="edgeLabel;html=1;align=center;verticalAlign=middle;resizable=0;points=[];" parent="67" connectable="0" vertex="1"><mxGeometry x="-0.1912" y="-1" relative="1" as="geometry"><mxPoint x="-21" y="-29" as="offset"/></mxGeometry></mxCell><mxCell id="69" value="" style="endArrow=open;html=1;fontColor=#000099;endFill=0;dashed=1;endSize=8;startArrow=open;startFill=0;startSize=8;arcSize=0;rounded=0;" parent="1" edge="1"><mxGeometry width="50" height="50" relative="1" as="geometry"><mxPoint x="94" y="1731" as="sourcePoint"/><mxPoint x="94" y="1641" as="targetPoint"/></mxGeometry></mxCell><mxCell id="70" value="&amp;lt;&amp;lt;owl:inverseOf&amp;gt;&amp;gt;" style="text;html=1;align=center;verticalAlign=middle;resizable=0;points=[];fontColor=#000000;labelBackgroundColor=#ffffff;" parent="69" connectable="0" vertex="1"><mxGeometry x="-0.3277" relative="1" as="geometry"><mxPoint x="7" y="-11" as="offset"/></mxGeometry></mxCell><mxCell id="71" value="" style="endArrow=classic;html=1;endSize=8;dashed=1;arcSize=0;rounded=0;edgeStyle=orthogonalEdgeStyle;exitX=0;exitY=0.3;exitDx=0;exitDy=0;entryX=0;entryY=0.3;entryDx=0;entryDy=0;" parent="1" source="15" target="64" edge="1"><mxGeometry width="50" height="50" relative="1" as="geometry"><mxPoint x="113" y="1383" as="sourcePoint"/><mxPoint x="-87" y="1544" as="targetPoint"/><Array as="points"><mxPoint x="-97" y="1383"/><mxPoint x="-97" y="1543"/></Array></mxGeometry></mxCell><mxCell id="72" value="(all) saref:isPropertyOf" style="edgeLabel;html=1;align=center;verticalAlign=middle;resizable=0;points=[];" parent="71" connectable="0" vertex="1"><mxGeometry x="-0.1912" y="-1" relative="1" as="geometry"><mxPoint x="18" y="2" as="offset"/></mxGeometry></mxCell><mxCell id="73" value="" style="endArrow=classic;html=1;exitX=0.9;exitY=0;exitDx=0;exitDy=0;entryX=0;entryY=0.7;entryDx=0;entryDy=0;endSize=8;arcSize=0;rounded=0;edgeStyle=orthogonalEdgeStyle;dashed=1;" parent="1" source="64" target="15" edge="1"><mxGeometry width="50" height="50" relative="1" as="geometry"><mxPoint x="-156" y="1740" as="sourcePoint"/><mxPoint x="-327" y="1665" as="targetPoint"/><Array as="points"><mxPoint x="23" y="1534"/><mxPoint x="23" y="1395"/></Array></mxGeometry></mxCell><mxCell id="74" value="(all) saref:hasProperty" style="edgeLabel;html=1;align=center;verticalAlign=middle;resizable=0;points=[];" parent="73" connectable="0" vertex="1"><mxGeometry x="-0.1912" y="-1" relative="1" as="geometry"><mxPoint x="-1" y="-29" as="offset"/></mxGeometry></mxCell><mxCell id="75" value="" style="endArrow=open;html=1;fontColor=#000099;endFill=0;dashed=1;endSize=8;startArrow=open;startFill=0;startSize=8;arcSize=0;rounded=0;" parent="1" edge="1"><mxGeometry width="50" height="50" relative="1" as="geometry"><mxPoint x="23" y="1454" as="sourcePoint"/><mxPoint x="-97" y="1454" as="targetPoint"/></mxGeometry></mxCell><mxCell id="76" value="&amp;lt;&amp;lt;owl:inverseOf&amp;gt;&amp;gt;" style="text;html=1;align=center;verticalAlign=middle;resizable=0;points=[];fontColor=#000000;labelBackgroundColor=#ffffff;" parent="75" connectable="0" vertex="1"><mxGeometry x="-0.3277" relative="1" as="geometry"><mxPoint x="-19" as="offset"/></mxGeometry></mxCell><mxCell id="77" style="edgeStyle=orthogonalEdgeStyle;rounded=0;orthogonalLoop=1;jettySize=auto;html=1;exitX=0.5;exitY=0;exitDx=0;exitDy=0;endArrow=block;endFill=0;entryX=0.5;entryY=1;entryDx=0;entryDy=0;" parent="1" source="78" target="21" edge="1"><mxGeometry relative="1" as="geometry"><Array as="points"/><mxPoint x="554" y="1703" as="targetPoint"/></mxGeometry></mxCell><mxCell id="78" value="saref:Meter" style="rounded=0;whiteSpace=wrap;html=1;snapToPoint=1;points=[[0.1,0],[0.2,0],[0.3,0],[0.4,0],[0.5,0],[0.6,0],[0.7,0],[0.8,0],[0.9,0],[0,0.1],[0,0.3],[0,0.5],[0,0.7],[0,0.9],[0.1,1],[0.2,1],[0.3,1],[0.4,1],[0.5,1],[0.6,1],[0.7,1],[0.8,1],[0.9,1],[1,0.1],[1,0.3],[1,0.5],[1,0.7],[1,0.9]];" parent="1" vertex="1"><mxGeometry x="494" y="1711" width="79" height="30" as="geometry"/></mxCell><mxCell id="79" style="edgeStyle=orthogonalEdgeStyle;rounded=0;orthogonalLoop=1;jettySize=auto;html=1;exitX=0.5;exitY=0;exitDx=0;exitDy=0;endArrow=block;endFill=0;entryX=0.5;entryY=1;entryDx=0;entryDy=0;" parent="1" source="80" target="82" edge="1"><mxGeometry relative="1" as="geometry"><Array as="points"><mxPoint x="641" y="1764"/><mxPoint x="729" y="1764"/></Array><mxPoint x="580" y="1757" as="targetPoint"/></mxGeometry></mxCell><mxCell id="80" value="bigg:EnergyMeter" style="rounded=0;whiteSpace=wrap;html=1;snapToPoint=1;points=[[0.1,0],[0.2,0],[0.3,0],[0.4,0],[0.5,0],[0.6,0],[0.7,0],[0.8,0],[0.9,0],[0,0.1],[0,0.3],[0,0.5],[0,0.7],[0,0.9],[0.1,1],[0.2,1],[0.3,1],[0.4,1],[0.5,1],[0.6,1],[0.7,1],[0.8,1],[0.9,1],[1,0.1],[1,0.3],[1,0.5],[1,0.7],[1,0.9]];fillColor=#dae8fc;strokeColor=#6c8ebf;" parent="1" vertex="1"><mxGeometry x="590.5" y="1797" width="100" height="30" as="geometry"/></mxCell><mxCell id="81" style="rounded=0;orthogonalLoop=1;jettySize=auto;html=1;exitX=0.3;exitY=0;exitDx=0;exitDy=0;endArrow=block;endFill=0;entryX=0.5;entryY=1;entryDx=0;entryDy=0;edgeStyle=orthogonalEdgeStyle;" parent="1" source="82" target="14" edge="1"><mxGeometry relative="1" as="geometry"><Array as="points"><mxPoint x="706" y="1634"/><mxPoint x="534" y="1634"/></Array><mxPoint x="650" y="1599" as="targetPoint"/></mxGeometry></mxCell><mxCell id="82" value="bigg:EnergyDevice" style="rounded=0;whiteSpace=wrap;html=1;snapToPoint=1;points=[[0.1,0],[0.2,0],[0.3,0],[0.4,0],[0.5,0],[0.6,0],[0.7,0],[0.8,0],[0.9,0],[0,0.1],[0,0.3],[0,0.5],[0,0.7],[0,0.9],[0.1,1],[0.2,1],[0.3,1],[0.4,1],[0.5,1],[0.6,1],[0.7,1],[0.8,1],[0.9,1],[1,0.1],[1,0.3],[1,0.5],[1,0.7],[1,0.9]];fillColor=#dae8fc;strokeColor=#6c8ebf;" parent="1" vertex="1"><mxGeometry x="672" y="1671" width="113" height="30" as="geometry"/></mxCell><mxCell id="83" style="rounded=0;orthogonalLoop=1;jettySize=auto;html=1;exitX=0.5;exitY=0;exitDx=0;exitDy=0;endArrow=block;endFill=0;entryX=0.5;entryY=1;entryDx=0;entryDy=0;edgeStyle=elbowEdgeStyle;elbow=vertical;" parent="1" source="84" target="124" edge="1"><mxGeometry relative="1" as="geometry"><mxPoint x="728.5" y="1503" as="targetPoint"/></mxGeometry></mxCell><mxCell id="84" value="bigg:EnergyAsset" style="rounded=0;whiteSpace=wrap;html=1;snapToPoint=1;points=[[0.1,0],[0.2,0],[0.3,0],[0.4,0],[0.5,0],[0.6,0],[0.7,0],[0.8,0],[0.9,0],[0,0.1],[0,0.3],[0,0.5],[0,0.7],[0,0.9],[0.1,1],[0.2,1],[0.3,1],[0.4,1],[0.5,1],[0.6,1],[0.7,1],[0.8,1],[0.9,1],[1,0.1],[1,0.3],[1,0.5],[1,0.7],[1,0.9]];fillColor=#dae8fc;strokeColor=#6c8ebf;" parent="1" vertex="1"><mxGeometry x="678.5" y="1593" width="100" height="30" as="geometry"/></mxCell><mxCell id="85" style="edgeStyle=orthogonalEdgeStyle;rounded=0;orthogonalLoop=1;jettySize=auto;html=1;exitX=0.5;exitY=0;exitDx=0;exitDy=0;endArrow=block;endFill=0;entryX=0.5;entryY=1;entryDx=0;entryDy=0;" parent="1" source="80" target="78" edge="1"><mxGeometry relative="1" as="geometry"><Array as="points"><mxPoint x="641" y="1764"/><mxPoint x="533" y="1764"/></Array><mxPoint x="666.5" y="1732" as="targetPoint"/><mxPoint x="590" y="1807" as="sourcePoint"/></mxGeometry></mxCell><mxCell id="86" style="rounded=0;orthogonalLoop=1;jettySize=auto;html=1;exitX=0.5;exitY=0;exitDx=0;exitDy=0;endArrow=block;endFill=0;entryX=0.5;entryY=1;entryDx=0;entryDy=0;" parent="1" source="82" target="84" edge="1"><mxGeometry relative="1" as="geometry"><mxPoint x="616" y="1513" as="targetPoint"/><mxPoint x="738.5" y="1658" as="sourcePoint"/></mxGeometry></mxCell><mxCell id="87" style="rounded=0;orthogonalLoop=1;jettySize=auto;html=1;exitX=0.5;exitY=0;exitDx=0;exitDy=0;endArrow=block;endFill=0;entryX=0.2;entryY=1;entryDx=0;entryDy=0;edgeStyle=orthogonalEdgeStyle;" parent="1" source="84" target="4" edge="1"><mxGeometry relative="1" as="geometry"><mxPoint x="693" y="1404" as="targetPoint"/><mxPoint x="815.5" y="1670" as="sourcePoint"/><Array as="points"><mxPoint x="729" y="1584"/><mxPoint x="833" y="1584"/></Array></mxGeometry></mxCell><mxCell id="88" value="s4syst:ConnectionPoint" style="rounded=0;whiteSpace=wrap;html=1;snapToPoint=1;points=[[0.1,0],[0.2,0],[0.3,0],[0.4,0],[0.5,0],[0.6,0],[0.7,0],[0.8,0],[0.9,0],[0,0.1],[0,0.3],[0,0.5],[0,0.7],[0,0.9],[0.1,1],[0.2,1],[0.3,1],[0.4,1],[0.5,1],[0.6,1],[0.7,1],[0.8,1],[0.9,1],[1,0.1],[1,0.3],[1,0.5],[1,0.7],[1,0.9]];" parent="1" vertex="1"><mxGeometry x="8" y="1224" width="150" height="30" as="geometry"/></mxCell><mxCell id="89" value="s4syst:System" style="rounded=0;whiteSpace=wrap;html=1;snapToPoint=1;points=[[0.1,0],[0.2,0],[0.3,0],[0.4,0],[0.5,0],[0.6,0],[0.7,0],[0.8,0],[0.9,0],[0,0.1],[0,0.3],[0,0.5],[0,0.7],[0,0.9],[0.1,1],[0.2,1],[0.3,1],[0.4,1],[0.5,1],[0.6,1],[0.7,1],[0.8,1],[0.9,1],[1,0.1],[1,0.3],[1,0.5],[1,0.7],[1,0.9]];" parent="1" vertex="1"><mxGeometry x="313" y="1224" width="103" height="30" as="geometry"/></mxCell><mxCell id="90" value="" style="endArrow=classic;html=1;exitX=0.1;exitY=1;exitDx=0;exitDy=0;entryX=0.6;entryY=1;entryDx=0;entryDy=0;endSize=8;arcSize=0;rounded=0;edgeStyle=orthogonalEdgeStyle;" parent="1" source="89" target="88" edge="1"><mxGeometry width="50" height="50" relative="1" as="geometry"><mxPoint x="190.99999999999955" y="1205" as="sourcePoint"/><mxPoint x="29.999999999999773" y="1053" as="targetPoint"/><Array as="points"><mxPoint x="323" y="1274"/><mxPoint x="98" y="1274"/></Array></mxGeometry></mxCell><mxCell id="91" value="&lt;div&gt;s4syst:connectsAt&lt;/div&gt;" style="text;html=1;align=center;verticalAlign=middle;resizable=0;points=[];labelBackgroundColor=#ffffff;" parent="90" connectable="0" vertex="1"><mxGeometry x="-0.1269" relative="1" as="geometry"><mxPoint x="-33" as="offset"/></mxGeometry></mxCell><mxCell id="92" value="" style="endArrow=classic;html=1;exitX=0.925;exitY=0.011;exitDx=0;exitDy=0;entryX=0.1;entryY=0;entryDx=0;entryDy=0;endSize=8;arcSize=0;rounded=0;exitPerimeter=0;edgeStyle=orthogonalEdgeStyle;" parent="1" source="88" target="89" edge="1"><mxGeometry width="50" height="50" relative="1" as="geometry"><mxPoint x="-35.00000000000023" y="1234" as="sourcePoint"/><mxPoint x="109.99999999999977" y="1082" as="targetPoint"/><Array as="points"><mxPoint x="93" y="1224"/><mxPoint x="93" y="1204"/><mxPoint x="323" y="1204"/></Array></mxGeometry></mxCell><mxCell id="93" value="&lt;div&gt;s4syst:connectionPointOf&lt;/div&gt;" style="text;html=1;align=center;verticalAlign=middle;resizable=0;points=[];labelBackgroundColor=#ffffff;" parent="92" connectable="0" vertex="1"><mxGeometry x="-0.1269" relative="1" as="geometry"><mxPoint x="15" y="-2" as="offset"/></mxGeometry></mxCell><mxCell id="94" value="" style="endArrow=open;html=1;fontColor=#000099;endFill=0;dashed=1;endSize=8;startArrow=open;startFill=0;startSize=8;arcSize=0;rounded=0;" parent="1" edge="1"><mxGeometry width="50" height="50" relative="1" as="geometry"><mxPoint x="273" y="1274" as="sourcePoint"/><mxPoint x="273" y="1204" as="targetPoint"/></mxGeometry></mxCell><mxCell id="95" value="&amp;lt;&amp;lt;owl:inverseOf&amp;gt;&amp;gt;" style="text;html=1;align=center;verticalAlign=middle;resizable=0;points=[];fontColor=#000000;labelBackgroundColor=#ffffff;" parent="94" connectable="0" vertex="1"><mxGeometry x="-0.3277" relative="1" as="geometry"><mxPoint x="-20" y="-12" as="offset"/></mxGeometry></mxCell><mxCell id="96" value="" style="endArrow=block;html=1;fontColor=#000099;exitX=0.5;exitY=0;exitDx=0;exitDy=0;endFill=0;entryX=0.5;entryY=1;entryDx=0;entryDy=0;endSize=8;arcSize=0;rounded=0;edgeStyle=orthogonalEdgeStyle;" parent="1" source="14" target="89" edge="1"><mxGeometry width="50" height="50" relative="1" as="geometry"><mxPoint x="458" y="1315" as="sourcePoint"/><mxPoint x="223" y="1264" as="targetPoint"/><Array as="points"><mxPoint x="534" y="1304"/><mxPoint x="365" y="1304"/></Array></mxGeometry></mxCell><mxCell id="97" value="gn:Feature" style="rounded=0;whiteSpace=wrap;html=1;snapToPoint=1;points=[[0.1,0],[0.2,0],[0.3,0],[0.4,0],[0.5,0],[0.6,0],[0.7,0],[0.8,0],[0.9,0],[0,0.1],[0,0.3],[0,0.5],[0,0.7],[0,0.9],[0.1,1],[0.2,1],[0.3,1],[0.4,1],[0.5,1],[0.6,1],[0.7,1],[0.8,1],[0.9,1],[1,0.1],[1,0.3],[1,0.5],[1,0.7],[1,0.9]];" parent="1" vertex="1"><mxGeometry x="809" y="1304.0000000000002" width="120" height="30" as="geometry"/></mxCell><mxCell id="98" value="" style="endArrow=block;html=1;fontColor=#000099;exitX=0.5;exitY=0;exitDx=0;exitDy=0;endFill=0;entryX=0.5;entryY=1;entryDx=0;entryDy=0;endSize=8;arcSize=0;rounded=0;" parent="1" source="100" target="88" edge="1"><mxGeometry width="50" height="50" relative="1" as="geometry"><mxPoint x="83.00000000000045" y="1294" as="sourcePoint"/><mxPoint x="971" y="1150" as="targetPoint"/></mxGeometry></mxCell><mxCell id="99" value="bigg:energySupplyPointNumber: String" style="rounded=0;whiteSpace=wrap;html=1;snapToPoint=1;points=[[0.1,0],[0.2,0],[0.3,0],[0.4,0],[0.5,0],[0.6,0],[0.7,0],[0.8,0],[0.9,0],[0,0.1],[0,0.3],[0,0.5],[0,0.7],[0,0.9],[0.1,1],[0.2,1],[0.3,1],[0.4,1],[0.5,1],[0.6,1],[0.7,1],[0.8,1],[0.9,1],[1,0.1],[1,0.3],[1,0.5],[1,0.7],[1,0.9]];dashed=1;" parent="1" vertex="1"><mxGeometry x="-29" y="1328" width="223" height="30" as="geometry"/></mxCell><mxCell id="100" value="bigg:EnergySupplyPoint" style="rounded=0;whiteSpace=wrap;html=1;snapToPoint=1;points=[[0.1,0],[0.2,0],[0.3,0],[0.4,0],[0.5,0],[0.6,0],[0.7,0],[0.8,0],[0.9,0],[0,0.1],[0,0.3],[0,0.5],[0,0.7],[0,0.9],[0.1,1],[0.2,1],[0.3,1],[0.4,1],[0.5,1],[0.6,1],[0.7,1],[0.8,1],[0.9,1],[1,0.1],[1,0.3],[1,0.5],[1,0.7],[1,0.9]];fillColor=#dae8fc;strokeColor=#6c8ebf;" parent="1" vertex="1"><mxGeometry x="-29" y="1298" width="223" height="30" as="geometry"/></mxCell><mxCell id="101" value="s4city:AdministrativeArea" style="rounded=0;whiteSpace=wrap;html=1;snapToPoint=1;points=[[0.1,0],[0.2,0],[0.3,0],[0.4,0],[0.5,0],[0.6,0],[0.7,0],[0.8,0],[0.9,0],[0,0.1],[0,0.3],[0,0.5],[0,0.7],[0,0.9],[0.1,1],[0.2,1],[0.3,1],[0.4,1],[0.5,1],[0.6,1],[0.7,1],[0.8,1],[0.9,1],[1,0.1],[1,0.3],[1,0.5],[1,0.7],[1,0.9]];" parent="1" vertex="1"><mxGeometry x="900" y="1438" width="144" height="30" as="geometry"/></mxCell><mxCell id="102" value="" style="endArrow=block;html=1;fontColor=#000099;exitX=0;exitY=0.5;exitDx=0;exitDy=0;endFill=0;endSize=8;arcSize=0;rounded=0;edgeStyle=orthogonalEdgeStyle;entryX=0.5;entryY=1;entryDx=0;entryDy=0;" parent="1" source="101" target="4" edge="1"><mxGeometry width="50" height="50" relative="1" as="geometry"><mxPoint x="909" y="1587" as="sourcePoint"/><mxPoint x="843" y="1501" as="targetPoint"/></mxGeometry></mxCell><mxCell id="103" value="gn:Code" style="rounded=0;whiteSpace=wrap;html=1;snapToPoint=1;points=[[0.1,0],[0.2,0],[0.3,0],[0.4,0],[0.5,0],[0.6,0],[0.7,0],[0.8,0],[0.9,0],[0,0.1],[0,0.3],[0,0.5],[0,0.7],[0,0.9],[0.1,1],[0.2,1],[0.3,1],[0.4,1],[0.5,1],[0.6,1],[0.7,1],[0.8,1],[0.9,1],[1,0.1],[1,0.3],[1,0.5],[1,0.7],[1,0.9]];" parent="1" vertex="1"><mxGeometry x="568" y="1304.0000000000002" width="120" height="30" as="geometry"/></mxCell><mxCell id="104" value="" style="endArrow=classic;html=1;exitX=0;exitY=0.5;exitDx=0;exitDy=0;entryX=1;entryY=0.5;entryDx=0;entryDy=0;endSize=8;dashed=1;arcSize=0;rounded=0;edgeStyle=orthogonalEdgeStyle;" parent="1" source="97" target="103" edge="1"><mxGeometry width="50" height="50" relative="1" as="geometry"><mxPoint x="925" y="1275.0000000000002" as="sourcePoint"/><mxPoint x="1078.9999999999995" y="1306.0000000000002" as="targetPoint"/></mxGeometry></mxCell><mxCell id="105" value="&lt;div&gt;gn:featureCode&lt;/div&gt;" style="edgeLabel;html=1;align=center;verticalAlign=middle;resizable=0;points=[];" parent="104" connectable="0" vertex="1"><mxGeometry x="-0.1912" y="-1" relative="1" as="geometry"><mxPoint x="-2" y="1" as="offset"/></mxGeometry></mxCell><mxCell id="106" value="≡" style="ellipse;whiteSpace=wrap;html=1;aspect=fixed;fontSize=17;" parent="1" vertex="1"><mxGeometry x="736.69" y="1335.5" width="30" height="30" as="geometry"/></mxCell><mxCell id="107" value="" style="endArrow=open;html=1;fontColor=#000099;endFill=0;dashed=1;endSize=8;entryX=0.1;entryY=1;entryDx=0;entryDy=0;exitX=1;exitY=0.5;exitDx=0;exitDy=0;arcSize=0;rounded=0;" parent="1" source="106" target="97" edge="1"><mxGeometry width="50" height="50" relative="1" as="geometry"><mxPoint x="800" y="1350" as="sourcePoint"/><mxPoint x="700" y="1370" as="targetPoint"/></mxGeometry></mxCell><mxCell id="108" value="" style="endArrow=open;html=1;fontColor=#000099;endFill=0;dashed=1;entryX=0.07;entryY=0.039;entryDx=0;entryDy=0;endSize=8;exitX=1;exitY=0.5;exitDx=0;exitDy=0;arcSize=0;rounded=0;entryPerimeter=0;" parent="1" source="106" target="4" edge="1"><mxGeometry width="50" height="50" relative="1" as="geometry"><mxPoint x="855" y="1372" as="sourcePoint"/><mxPoint x="830" y="1396" as="targetPoint"/></mxGeometry></mxCell><mxCell id="109" value="" style="endArrow=block;html=1;fontColor=#000099;exitX=0.5;exitY=0;exitDx=0;exitDy=0;endFill=0;entryX=0.5;entryY=1;entryDx=0;entryDy=0;endSize=8;arcSize=0;rounded=0;" parent="1" source="14" target="25" edge="1"><mxGeometry width="50" height="50" relative="1" as="geometry"><mxPoint x="544" y="1474" as="sourcePoint"/><mxPoint x="374.5" y="1264" as="targetPoint"/></mxGeometry></mxCell><mxCell id="110" value="s4syst:connectedTo&lt;br&gt;(T) s4sys:hasSubSystem" style="rounded=0;orthogonalLoop=1;jettySize=auto;html=1;endArrow=classic;endFill=1;exitX=0.7;exitY=0;exitDx=0;exitDy=0;entryX=0.4;entryY=0;entryDx=0;entryDy=0;edgeStyle=orthogonalEdgeStyle;" parent="1" source="89" target="89" edge="1"><mxGeometry x="-0.5418" y="-38" relative="1" as="geometry"><Array as="points"><mxPoint x="385" y="1174"/><mxPoint x="354" y="1174"/></Array><mxPoint x="380" y="1193.9999999999998" as="sourcePoint"/><mxPoint x="353" y="1193.9999999999998" as="targetPoint"/><mxPoint as="offset"/></mxGeometry></mxCell><mxCell id="111" value="" style="endArrow=classic;html=1;exitX=0.7;exitY=0;exitDx=0;exitDy=0;entryX=0;entryY=0.5;entryDx=0;entryDy=0;endSize=8;dashed=1;arcSize=0;rounded=0;edgeStyle=orthogonalEdgeStyle;" parent="1" source="29" target="50" edge="1"><mxGeometry width="50" height="50" relative="1" as="geometry"><mxPoint x="903" y="1131" as="sourcePoint"/><mxPoint x="1057" y="1162.0000000000002" as="targetPoint"/></mxGeometry></mxCell><mxCell id="112" value="&lt;div&gt;(some) s4agri:hasDeploymentPeriod&lt;/div&gt;" style="edgeLabel;html=1;align=center;verticalAlign=middle;resizable=0;points=[];" parent="111" connectable="0" vertex="1"><mxGeometry x="-0.1912" y="-1" relative="1" as="geometry"><mxPoint x="25" as="offset"/></mxGeometry></mxCell><mxCell id="113" value="s4bldg:BuildingSpace" style="rounded=0;whiteSpace=wrap;html=1;snapToPoint=1;points=[[0.1,0],[0.2,0],[0.3,0],[0.4,0],[0.5,0],[0.6,0],[0.7,0],[0.8,0],[0.9,0],[0,0.1],[0,0.3],[0,0.5],[0,0.7],[0,0.9],[0.1,1],[0.2,1],[0.3,1],[0.4,1],[0.5,1],[0.6,1],[0.7,1],[0.8,1],[0.9,1],[1,0.1],[1,0.3],[1,0.5],[1,0.7],[1,0.9]];" parent="1" vertex="1"><mxGeometry x="937" y="1725" width="124" height="30" as="geometry"/></mxCell><mxCell id="114" value="" style="endArrow=block;html=1;fontColor=#000099;exitX=0;exitY=0.5;exitDx=0;exitDy=0;endFill=0;endSize=8;arcSize=0;rounded=0;edgeStyle=orthogonalEdgeStyle;entryX=0.1;entryY=1;entryDx=0;entryDy=0;" parent="1" source="113" target="119" edge="1"><mxGeometry width="50" height="50" relative="1" as="geometry"><mxPoint x="909" y="1587" as="sourcePoint"/><mxPoint x="883" y="1421" as="targetPoint"/></mxGeometry></mxCell><mxCell id="115" value="" style="endArrow=block;html=1;fontColor=#000099;endFill=0;endSize=8;arcSize=0;rounded=0;edgeStyle=orthogonalEdgeStyle;entryX=0.2;entryY=1;entryDx=0;entryDy=0;exitX=1;exitY=0.5;exitDx=0;exitDy=0;" parent="1" source="116" target="64" edge="1"><mxGeometry width="50" height="50" relative="1" as="geometry"><mxPoint x="-230" y="1680" as="sourcePoint"/><mxPoint x="-120" y="1580" as="targetPoint"/></mxGeometry></mxCell><mxCell id="116" value="s4city:CityObject" style="rounded=0;whiteSpace=wrap;html=1;snapToPoint=1;points=[[0.1,0],[0.2,0],[0.3,0],[0.4,0],[0.5,0],[0.6,0],[0.7,0],[0.8,0],[0.9,0],[0,0.1],[0,0.3],[0,0.5],[0,0.7],[0,0.9],[0.1,1],[0.2,1],[0.3,1],[0.4,1],[0.5,1],[0.6,1],[0.7,1],[0.8,1],[0.9,1],[1,0.1],[1,0.3],[1,0.5],[1,0.7],[1,0.9]];" parent="1" vertex="1"><mxGeometry x="-181.99" y="1641" width="100" height="30" as="geometry"/></mxCell><mxCell id="117" value="s4city:AdministrativeArea" style="rounded=0;whiteSpace=wrap;html=1;snapToPoint=1;points=[[0.1,0],[0.2,0],[0.3,0],[0.4,0],[0.5,0],[0.6,0],[0.7,0],[0.8,0],[0.9,0],[0,0.1],[0,0.3],[0,0.5],[0,0.7],[0,0.9],[0.1,1],[0.2,1],[0.3,1],[0.4,1],[0.5,1],[0.6,1],[0.7,1],[0.8,1],[0.9,1],[1,0.1],[1,0.3],[1,0.5],[1,0.7],[1,0.9]];" parent="1" vertex="1"><mxGeometry x="-225.99" y="1589" width="144" height="30" as="geometry"/></mxCell><mxCell id="118" value="" style="endArrow=block;html=1;fontColor=#000099;exitX=1;exitY=0.5;exitDx=0;exitDy=0;endFill=0;endSize=8;arcSize=0;rounded=0;edgeStyle=orthogonalEdgeStyle;entryX=0.2;entryY=1;entryDx=0;entryDy=0;" parent="1" source="117" target="64" edge="1"><mxGeometry width="50" height="50" relative="1" as="geometry"><mxPoint x="-337" y="1784" as="sourcePoint"/><mxPoint x="-341" y="1580" as="targetPoint"/></mxGeometry></mxCell><mxCell id="119" value="s4city:CityObject" style="rounded=0;whiteSpace=wrap;html=1;snapToPoint=1;points=[[0.1,0],[0.2,0],[0.3,0],[0.4,0],[0.5,0],[0.6,0],[0.7,0],[0.8,0],[0.9,0],[0,0.1],[0,0.3],[0,0.5],[0,0.7],[0,0.9],[0.1,1],[0.2,1],[0.3,1],[0.4,1],[0.5,1],[0.6,1],[0.7,1],[0.8,1],[0.9,1],[1,0.1],[1,0.3],[1,0.5],[1,0.7],[1,0.9]];" parent="1" vertex="1"><mxGeometry x="900" y="1480" width="103" height="30" as="geometry"/></mxCell><mxCell id="120" value="" style="endArrow=block;html=1;fontColor=#000099;exitX=0;exitY=0.5;exitDx=0;exitDy=0;endFill=0;endSize=8;arcSize=0;rounded=0;edgeStyle=orthogonalEdgeStyle;entryX=0.5;entryY=1;entryDx=0;entryDy=0;" parent="1" source="119" target="4" edge="1"><mxGeometry width="50" height="50" relative="1" as="geometry"><mxPoint x="1063" y="1471" as="sourcePoint"/><mxPoint x="1032" y="1436" as="targetPoint"/></mxGeometry></mxCell><mxCell id="121" value="s4bldg:PhysicalObject" style="rounded=0;whiteSpace=wrap;html=1;snapToPoint=1;points=[[0.1,0],[0.2,0],[0.3,0],[0.4,0],[0.5,0],[0.6,0],[0.7,0],[0.8,0],[0.9,0],[0,0.1],[0,0.3],[0,0.5],[0,0.7],[0,0.9],[0.1,1],[0.2,1],[0.3,1],[0.4,1],[0.5,1],[0.6,1],[0.7,1],[0.8,1],[0.9,1],[1,0.1],[1,0.3],[1,0.5],[1,0.7],[1,0.9]];" parent="1" vertex="1"><mxGeometry x="567" y="1404" width="130" height="30" as="geometry"/></mxCell><mxCell id="122" value="s4bldg:BuildingObject" style="rounded=0;whiteSpace=wrap;html=1;snapToPoint=1;points=[[0.1,0],[0.2,0],[0.3,0],[0.4,0],[0.5,0],[0.6,0],[0.7,0],[0.8,0],[0.9,0],[0,0.1],[0,0.3],[0,0.5],[0,0.7],[0,0.9],[0.1,1],[0.2,1],[0.3,1],[0.4,1],[0.5,1],[0.6,1],[0.7,1],[0.8,1],[0.9,1],[1,0.1],[1,0.3],[1,0.5],[1,0.7],[1,0.9]];" parent="1" vertex="1"><mxGeometry x="646" y="1464.8999999999999" width="130" height="30" as="geometry"/></mxCell><mxCell id="123" style="rounded=0;orthogonalLoop=1;jettySize=auto;html=1;exitX=0.5;exitY=0;exitDx=0;exitDy=0;endArrow=block;endFill=0;entryX=0.5;entryY=1;entryDx=0;entryDy=0;edgeStyle=orthogonalEdgeStyle;" parent="1" source="14" target="121" edge="1"><mxGeometry relative="1" as="geometry"><mxPoint x="593" y="1450" as="targetPoint"/><mxPoint x="593" y="1534" as="sourcePoint"/><Array as="points"><mxPoint x="534" y="1454"/><mxPoint x="632" y="1454"/></Array></mxGeometry></mxCell><mxCell id="124" value="s4syst:System" style="rounded=0;whiteSpace=wrap;html=1;snapToPoint=1;points=[[0.1,0],[0.2,0],[0.3,0],[0.4,0],[0.5,0],[0.6,0],[0.7,0],[0.8,0],[0.9,0],[0,0.1],[0,0.3],[0,0.5],[0,0.7],[0,0.9],[0.1,1],[0.2,1],[0.3,1],[0.4,1],[0.5,1],[0.6,1],[0.7,1],[0.8,1],[0.9,1],[1,0.1],[1,0.3],[1,0.5],[1,0.7],[1,0.9]];" parent="1" vertex="1"><mxGeometry x="683.5" y="1533.21" width="90" height="30" as="geometry"/></mxCell><mxCell id="125" style="rounded=0;orthogonalLoop=1;jettySize=auto;html=1;exitX=0.5;exitY=0;exitDx=0;exitDy=0;endArrow=block;endFill=0;entryX=0.5;entryY=1;entryDx=0;entryDy=0;edgeStyle=orthogonalEdgeStyle;" parent="1" source="122" target="121" edge="1"><mxGeometry relative="1" as="geometry"><mxPoint x="847" y="1386" as="targetPoint"/><mxPoint x="763" y="1424" as="sourcePoint"/><Array as="points"><mxPoint x="711" y="1454"/><mxPoint x="632" y="1454"/></Array></mxGeometry></mxCell><mxCell id="126" value="s4bldg:BuildingDevice" style="rounded=0;whiteSpace=wrap;html=1;snapToPoint=1;points=[[0.1,0],[0.2,0],[0.3,0],[0.4,0],[0.5,0],[0.6,0],[0.7,0],[0.8,0],[0.9,0],[0,0.1],[0,0.3],[0,0.5],[0,0.7],[0,0.9],[0.1,1],[0.2,1],[0.3,1],[0.4,1],[0.5,1],[0.6,1],[0.7,1],[0.8,1],[0.9,1],[1,0.1],[1,0.3],[1,0.5],[1,0.7],[1,0.9]];" parent="1" vertex="1"><mxGeometry x="544.51" y="1533.21" width="127.49" height="30" as="geometry"/></mxCell><mxCell id="127" style="rounded=0;orthogonalLoop=1;jettySize=auto;html=1;exitX=0.5;exitY=0;exitDx=0;exitDy=0;endArrow=block;endFill=0;entryX=0.5;entryY=1;entryDx=0;entryDy=0;edgeStyle=orthogonalEdgeStyle;" parent="1" source="126" target="14" edge="1"><mxGeometry relative="1" as="geometry"><Array as="points"><mxPoint x="611" y="1514"/><mxPoint x="534" y="1514"/></Array><mxPoint x="544" y="1504" as="targetPoint"/><mxPoint x="716" y="1681" as="sourcePoint"/></mxGeometry></mxCell><mxCell id="128" style="rounded=0;orthogonalLoop=1;jettySize=auto;html=1;exitX=0.5;exitY=0;exitDx=0;exitDy=0;endArrow=block;endFill=0;entryX=0.5;entryY=1;entryDx=0;entryDy=0;edgeStyle=orthogonalEdgeStyle;" parent="1" source="126" target="122" edge="1"><mxGeometry relative="1" as="geometry"><mxPoint x="544" y="1504" as="targetPoint"/><mxPoint x="621" y="1534" as="sourcePoint"/><Array as="points"><mxPoint x="611" y="1514"/><mxPoint x="711" y="1514"/></Array></mxGeometry></mxCell><mxCell id="129" value="s4agri:WeatherStation" style="rounded=0;whiteSpace=wrap;html=1;snapToPoint=1;points=[[0.1,0],[0.2,0],[0.3,0],[0.4,0],[0.5,0],[0.6,0],[0.7,0],[0.8,0],[0.9,0],[0,0.1],[0,0.3],[0,0.5],[0,0.7],[0,0.9],[0.1,1],[0.2,1],[0.3,1],[0.4,1],[0.5,1],[0.6,1],[0.7,1],[0.8,1],[0.9,1],[1,0.1],[1,0.3],[1,0.5],[1,0.7],[1,0.9]];" parent="1" vertex="1"><mxGeometry x="566.69" y="1355" width="126.31" height="30" as="geometry"/></mxCell><mxCell id="130" value="" style="endArrow=block;html=1;fontColor=#000099;exitX=0;exitY=0.5;exitDx=0;exitDy=0;endFill=0;entryX=0.5;entryY=1;entryDx=0;entryDy=0;endSize=8;arcSize=0;rounded=0;edgeStyle=orthogonalEdgeStyle;" parent="1" source="129" target="25" edge="1"><mxGeometry width="50" height="50" relative="1" as="geometry"><mxPoint x="544" y="1474" as="sourcePoint"/><mxPoint x="544" y="1264" as="targetPoint"/></mxGeometry></mxCell><mxCell id="131" value="saref:State" style="rounded=0;whiteSpace=wrap;html=1;snapToPoint=1;points=[[0.1,0],[0.2,0],[0.3,0],[0.4,0],[0.5,0],[0.6,0],[0.7,0],[0.8,0],[0.9,0],[0,0.1],[0,0.3],[0,0.5],[0,0.7],[0,0.9],[0.1,1],[0.2,1],[0.3,1],[0.4,1],[0.5,1],[0.6,1],[0.7,1],[0.8,1],[0.9,1],[1,0.1],[1,0.3],[1,0.5],[1,0.7],[1,0.9]];" parent="1" vertex="1"><mxGeometry x="409" y="1589" width="80" height="30" as="geometry"/></mxCell><mxCell id="132" value="(all) saref:hasState" style="rounded=0;orthogonalLoop=1;jettySize=auto;html=1;exitX=0.3;exitY=1;exitDx=0;exitDy=0;entryX=1;entryY=0.5;entryDx=0;entryDy=0;endArrow=classic;endFill=1;edgeStyle=orthogonalEdgeStyle;" parent="1" source="14" target="131" edge="1"><mxGeometry x="1" y="-31" relative="1" as="geometry"><mxPoint x="-6" y="1" as="offset"/><Array as="points"><mxPoint x="523" y="1494"/><mxPoint x="523" y="1604"/></Array><mxPoint x="583" y="1604" as="sourcePoint"/><mxPoint x="796" y="1477" as="targetPoint"/></mxGeometry></mxCell><mxCell id="133" value="s4bldg:PhysicalObject" style="rounded=0;whiteSpace=wrap;html=1;snapToPoint=1;points=[[0.1,0],[0.2,0],[0.3,0],[0.4,0],[0.5,0],[0.6,0],[0.7,0],[0.8,0],[0.9,0],[0,0.1],[0,0.3],[0,0.5],[0,0.7],[0,0.9],[0.1,1],[0.2,1],[0.3,1],[0.4,1],[0.5,1],[0.6,1],[0.7,1],[0.8,1],[0.9,1],[1,0.1],[1,0.3],[1,0.5],[1,0.7],[1,0.9]];" parent="1" vertex="1"><mxGeometry x="937" y="1825" width="130" height="30" as="geometry"/></mxCell><mxCell id="134" value="" style="endArrow=block;html=1;fontColor=#000099;exitX=0;exitY=0.5;exitDx=0;exitDy=0;endFill=0;endSize=8;arcSize=0;rounded=0;edgeStyle=orthogonalEdgeStyle;entryX=0.1;entryY=1;entryDx=0;entryDy=0;" parent="1" source="133" target="119" edge="1"><mxGeometry width="50" height="50" relative="1" as="geometry"><mxPoint x="873" y="1714" as="sourcePoint"/><mxPoint x="846" y="1527" as="targetPoint"/></mxGeometry></mxCell><mxCell id="135" value="(T) s4bldg:isContainedIn" style="rounded=0;orthogonalLoop=1;jettySize=auto;html=1;exitX=0.1;exitY=0;exitDx=0;exitDy=0;dashed=1;endArrow=classic;endFill=1;endSize=8;labelBackgroundColor=default;entryX=0.1;entryY=1;entryDx=0;entryDy=0;" parent="1" source="133" target="113" edge="1"><mxGeometry x="-0.6914" y="-23" relative="1" as="geometry"><mxPoint as="offset"/><mxPoint x="1153" y="1769" as="sourcePoint"/><mxPoint x="962" y="1766" as="targetPoint"/></mxGeometry></mxCell><mxCell id="136" value="(all)s4bldg:isSpaceOf" style="rounded=0;orthogonalLoop=1;jettySize=auto;html=1;dashed=1;endArrow=classic;endFill=1;endSize=8;labelBackgroundColor=default;entryX=0.1;entryY=1;entryDx=0;entryDy=0;exitX=0.1;exitY=0;exitDx=0;exitDy=0;" parent="1" source="113" target="39" edge="1"><mxGeometry x="-0.6976" y="-14" relative="1" as="geometry"><mxPoint as="offset"/><mxPoint x="953" y="1714" as="sourcePoint"/><mxPoint x="983" y="1654" as="targetPoint"/></mxGeometry></mxCell><mxCell id="137" value="(T)(all) s4bldg:contains" style="rounded=0;orthogonalLoop=1;jettySize=auto;html=1;exitX=0.9;exitY=1;exitDx=0;exitDy=0;dashed=1;endArrow=classic;endFill=1;endSize=8;labelBackgroundColor=default;entryX=0.86;entryY=0.033;entryDx=0;entryDy=0;entryPerimeter=0;" parent="1" source="113" target="133" edge="1"><mxGeometry x="-0.5666" relative="1" as="geometry"><mxPoint as="offset"/><mxPoint x="1103" y="1789" as="sourcePoint"/><mxPoint x="1101" y="1730" as="targetPoint"/></mxGeometry></mxCell><mxCell id="138" value="(all) s4bldg:hasSpace" style="rounded=0;orthogonalLoop=1;jettySize=auto;html=1;dashed=1;endArrow=classic;endFill=1;endSize=8;labelBackgroundColor=default;entryX=0.9;entryY=0;entryDx=0;entryDy=0;exitX=0.9;exitY=1;exitDx=0;exitDy=0;" parent="1" source="39" target="113" edge="1"><mxGeometry x="-0.5666" relative="1" as="geometry"><mxPoint as="offset"/><mxPoint x="1036" y="1654" as="sourcePoint"/><mxPoint x="1033" y="1714" as="targetPoint"/></mxGeometry></mxCell><mxCell id="139" value="" style="endArrow=open;html=1;fontColor=#000099;endFill=0;dashed=1;endSize=8;startArrow=open;startFill=0;startSize=8;arcSize=0;rounded=0;edgeStyle=orthogonalEdgeStyle;" parent="1" edge="1"><mxGeometry width="50" height="50" relative="1" as="geometry"><mxPoint x="953" y="1778" as="sourcePoint"/><mxPoint x="1046" y="1805" as="targetPoint"/><Array as="points"><mxPoint x="993" y="1778"/><mxPoint x="993" y="1805"/></Array></mxGeometry></mxCell><mxCell id="140" value="&amp;lt;&amp;lt;owl:inverseOf&amp;gt;&amp;gt;" style="text;html=1;align=center;verticalAlign=middle;resizable=0;points=[];fontColor=#000000;labelBackgroundColor=#ffffff;fontSize=11;" parent="139" connectable="0" vertex="1"><mxGeometry x="-0.3277" relative="1" as="geometry"><mxPoint x="7" y="13" as="offset"/></mxGeometry></mxCell><mxCell id="141" value="" style="endArrow=open;html=1;fontColor=#000099;endFill=0;dashed=1;endSize=8;startArrow=open;startFill=0;startSize=8;arcSize=0;rounded=0;edgeStyle=orthogonalEdgeStyle;" parent="1" edge="1"><mxGeometry width="50" height="50" relative="1" as="geometry"><mxPoint x="953" y="1677" as="sourcePoint"/><mxPoint x="1046" y="1704" as="targetPoint"/><Array as="points"><mxPoint x="993" y="1677"/><mxPoint x="993" y="1704"/></Array></mxGeometry></mxCell><mxCell id="142" value="&amp;lt;&amp;lt;owl:inverseOf&amp;gt;&amp;gt;" style="text;html=1;align=center;verticalAlign=middle;resizable=0;points=[];fontColor=#000000;labelBackgroundColor=#ffffff;fontSize=11;" parent="141" connectable="0" vertex="1"><mxGeometry x="-0.3277" relative="1" as="geometry"><mxPoint x="7" y="13" as="offset"/></mxGeometry></mxCell><mxCell id="143" value="vcard:Address" style="rounded=0;whiteSpace=wrap;html=1;snapToPoint=1;points=[[0.1,0],[0.2,0],[0.3,0],[0.4,0],[0.5,0],[0.6,0],[0.7,0],[0.8,0],[0.9,0],[0,0.1],[0,0.3],[0,0.5],[0,0.7],[0,0.9],[0.1,1],[0.2,1],[0.3,1],[0.4,1],[0.5,1],[0.6,1],[0.7,1],[0.8,1],[0.9,1],[1,0.1],[1,0.3],[1,0.5],[1,0.7],[1,0.9]];" parent="1" vertex="1"><mxGeometry x="1112.9799999999998" y="1494" width="173.07" height="30" as="geometry"/></mxCell><mxCell id="144" value="" style="endArrow=classic;html=1;endSize=8;rounded=0;exitX=0.6;exitY=0;exitDx=0;exitDy=0;entryX=0.5;entryY=1;entryDx=0;entryDy=0;dashed=1;" parent="1" source="143" target="9" edge="1"><mxGeometry width="50" height="50" relative="1" as="geometry"><mxPoint x="1702.9000000000005" y="1593.31" as="sourcePoint"/><mxPoint x="1553.4200000000008" y="1510" as="targetPoint"/></mxGeometry></mxCell><mxCell id="145" value="&lt;div&gt;vcard:hasGeo&lt;/div&gt;" style="text;html=1;align=center;verticalAlign=middle;resizable=0;points=[];labelBackgroundColor=#ffffff;" parent="144" connectable="0" vertex="1"><mxGeometry x="-0.1269" relative="1" as="geometry"><mxPoint x="4" y="1" as="offset"/></mxGeometry></mxCell><mxCell id="146" value="" style="endArrow=classic;html=1;endSize=8;rounded=0;exitX=0.9;exitY=1;exitDx=0;exitDy=0;entryX=0.265;entryY=0.039;entryDx=0;entryDy=0;entryPerimeter=0;edgeStyle=orthogonalEdgeStyle;startArrow=oval;startFill=0;" parent="1" source="4" target="143" edge="1"><mxGeometry width="50" height="50" relative="1" as="geometry"><mxPoint x="1435.4200000000008" y="1417" as="sourcePoint"/><mxPoint x="1676.0500000000002" y="1614.83" as="targetPoint"/><Array as="points"><mxPoint x="917" y="1414"/><mxPoint x="1159" y="1414"/></Array></mxGeometry></mxCell><mxCell id="147" value="&lt;div&gt;vcard:hasAddress&lt;/div&gt;" style="text;html=1;align=center;verticalAlign=middle;resizable=0;points=[];labelBackgroundColor=#ffffff;" parent="146" connectable="0" vertex="1"><mxGeometry x="-0.1269" relative="1" as="geometry"><mxPoint x="-41" y="-4" as="offset"/></mxGeometry></mxCell><mxCell id="148" value="&lt;font color=&quot;#000000&quot;&gt;vcard:street-address: xsd:string&lt;br&gt;vcard:postal-code: xsd:string&lt;br&gt;&lt;/font&gt;" style="rounded=0;whiteSpace=wrap;html=1;snapToPoint=1;points=[[0.1,0],[0.2,0],[0.3,0],[0.4,0],[0.5,0],[0.6,0],[0.7,0],[0.8,0],[0.9,0],[0,0.1],[0,0.3],[0,0.5],[0,0.7],[0,0.9],[0.1,1],[0.2,1],[0.3,1],[0.4,1],[0.5,1],[0.6,1],[0.7,1],[0.8,1],[0.9,1],[1,0.1],[1,0.3],[1,0.5],[1,0.7],[1,0.9]];dashed=1;fontColor=#3333FF;" parent="1" vertex="1"><mxGeometry x="1112.9799999999998" y="1524" width="173.07" height="38" as="geometry"/></mxCell><mxCell id="149" value="vcard:hasStreetAddress" style="rounded=0;orthogonalLoop=1;jettySize=auto;html=1;fontSize=12;entryX=0.7;entryY=1;entryDx=0;entryDy=0;edgeStyle=orthogonalEdgeStyle;exitX=0.1;exitY=0;exitDx=0;exitDy=0;dashed=1;" parent="1" source="143" target="4" edge="1"><mxGeometry x="0.0252" relative="1" as="geometry"><mxPoint x="1123" y="1494" as="sourcePoint"/><mxPoint x="1414.4200000000008" y="1426" as="targetPoint"/><mxPoint as="offset"/><Array as="points"><mxPoint x="1130" y="1424"/><mxPoint x="893" y="1424"/></Array></mxGeometry></mxCell><mxCell id="150" value="time:TemporalEntity" style="rounded=0;whiteSpace=wrap;html=1;snapToPoint=1;points=[[0.1,0],[0.2,0],[0.3,0],[0.4,0],[0.5,0],[0.6,0],[0.7,0],[0.8,0],[0.9,0],[0,0.1],[0,0.3],[0,0.5],[0,0.7],[0,0.9],[0.1,1],[0.2,1],[0.3,1],[0.4,1],[0.5,1],[0.6,1],[0.7,1],[0.8,1],[0.9,1],[1,0.1],[1,0.3],[1,0.5],[1,0.7],[1,0.9]];" parent="1" vertex="1"><mxGeometry x="63" y="1808" width="120" height="30" as="geometry"/></mxCell><mxCell id="151" value="" style="endArrow=classic;html=1;exitX=0.2;exitY=1;exitDx=0;exitDy=0;entryX=0.5;entryY=0;entryDx=0;entryDy=0;endSize=8;arcSize=0;rounded=0;edgeStyle=orthogonalEdgeStyle;" parent="1" source="20" target="150" edge="1"><mxGeometry width="50" height="50" relative="1" as="geometry"><mxPoint x="-92" y="1879" as="sourcePoint"/><mxPoint x="73" y="1787" as="targetPoint"/><Array as="points"><mxPoint x="198" y="1764"/><mxPoint x="123" y="1764"/></Array></mxGeometry></mxCell><mxCell id="152" value="&lt;div&gt;s4watr:hasPhenomenonTime&lt;/div&gt;" style="edgeLabel;html=1;align=center;verticalAlign=middle;resizable=0;points=[];" parent="151" connectable="0" vertex="1"><mxGeometry x="-0.1912" y="-1" relative="1" as="geometry"><mxPoint x="-68" y="3" as="offset"/></mxGeometry></mxCell><mxCell id="153" value="(all) saref:relatesToMeasurement" style="edgeStyle=orthogonalEdgeStyle;rounded=0;orthogonalLoop=1;jettySize=auto;html=1;exitX=0.014;exitY=-0.074;exitDx=0;exitDy=0;endArrow=none;endFill=0;entryX=0.263;entryY=0.983;entryDx=0;entryDy=0;entryPerimeter=0;exitPerimeter=0;startArrow=classic;startFill=1;" parent="1" source="18" target="15" edge="1"><mxGeometry x="0.172" y="44" relative="1" as="geometry"><mxPoint as="offset"/><Array as="points"><mxPoint x="157" y="1554"/><mxPoint x="157" y="1554"/></Array><mxPoint x="143" y="1554" as="sourcePoint"/><mxPoint x="143" y="1404" as="targetPoint"/></mxGeometry></mxCell><mxCell id="154" value="" style="endArrow=classic;html=1;exitX=0.855;exitY=-0.067;exitDx=0;exitDy=0;endSize=8;arcSize=0;rounded=0;edgeStyle=orthogonalEdgeStyle;dashed=1;startArrow=oval;startFill=1;entryX=1;entryY=0.5;entryDx=0;entryDy=0;exitPerimeter=0;" parent="1" source="2" target="156" edge="1"><mxGeometry width="50" height="50" relative="1" as="geometry"><mxPoint x="1203" y="1344" as="sourcePoint"/><mxPoint x="1353" y="1354" as="targetPoint"/></mxGeometry></mxCell><mxCell id="155" value="&lt;div style=&quot;font-size: 11px;&quot;&gt;geosp:hasArea&lt;/div&gt;" style="text;html=1;align=center;verticalAlign=middle;resizable=0;points=[];labelBackgroundColor=#ffffff;fontSize=11;" parent="154" connectable="0" vertex="1"><mxGeometry x="-0.1269" relative="1" as="geometry"><mxPoint x="-23" y="16" as="offset"/></mxGeometry></mxCell><mxCell id="156" value="saref:Measurement" style="rounded=0;whiteSpace=wrap;html=1;snapToPoint=1;points=[[0.1,0],[0.2,0],[0.3,0],[0.4,0],[0.5,0],[0.6,0],[0.7,0],[0.8,0],[0.9,0],[0,0.1],[0,0.3],[0,0.5],[0,0.7],[0,0.9],[0.1,1],[0.2,1],[0.3,1],[0.4,1],[0.5,1],[0.6,1],[0.7,1],[0.8,1],[0.9,1],[1,0.1],[1,0.3],[1,0.5],[1,0.7],[1,0.9]];" parent="1" vertex="1"><mxGeometry x="933.5" y="1211" width="119" height="30" as="geometry"/></mxCell><mxCell id="157" value="&lt;b&gt;&lt;font style=&quot;font-size: 19px;&quot;&gt;BIGG CORE&lt;/font&gt;&lt;/b&gt;" style="text;html=1;align=center;verticalAlign=middle;resizable=0;points=[];autosize=1;strokeColor=none;fillColor=none;" parent="1" vertex="1"><mxGeometry x="-440" y="1129" width="130" height="40" as="geometry"/></mxCell></root></mxGraphModel></diagram></mxfile>